# xmcd CD database file
#
# Track frame offsets:
#	150
#	19446
#	36441
#	53446
#	68904
#	91407
#	110827
#	123880
#	149668
#	168456
#	192132
#	212445
#	231054
#	251975
#	267758
#	287974
#
# Disc length: 4107 seconds
#
# Revision: 0
# Processed by: cddbd v1.5.1PL2 Copyright (c) Steve Scherf et al.
# Submitted via: CDex 1.51
#
DISCID=f3100910
DTITLE=Lilian Boute - at home with jérôme
DYEAR=1900
DGENRE=Jazz
TTITLE0=The Boy from New Orleans
TTITLE1=I'm walkin'
TTITLE2=Gee baby, ain't I good to you
TTITLE3=Gloria's kitchen
TTITLE4=Tennessee waltz
TTITLE5=Mardi gras in New Orleans
TTITLE6=Pani tou moun
TTITLE7=Precious Lord
TTITLE8=Just a little while
TTITLE9=Music is my life
TTITLE10=Li'l Liza Jane
TTITLE11=St'Thomas
TTITLE12=Black Benny
TTITLE13=At home with Jérôme
TTITLE14=Moanin
TTITLE15=Soul bossa nova
EXTD=
EXTT0=
EXTT1=
EXTT2=
EXTT3=
EXTT4=
EXTT5=
EXTT6=
EXTT7=
EXTT8=
EXTT9=
EXTT10=
EXTT11=
EXTT12=
EXTT13=
EXTT14=
EXTT15=
PLAYORDER=
